<svg xmlns="http://www.w3.org/2000/svg" viewBox="0 0 220 80" width="660" height="240">
  <defs>
    <style>@import url('https://fonts.googleapis.com/css2?family=Outfit:wght@800&amp;display=swap');</style>
  </defs>
  <path d="M10,10 L10,66 Q10,74 18,74 L54,74 Q62,74 62,66 L62,10" fill="none" stroke="#10B981" stroke-width="2.2" stroke-linejoin="round"/>
  <line x1="8" y1="10" x2="64" y2="10" stroke="#10B981" stroke-width="2.2" stroke-linecap="round"/>
  <path d="M62,10 L66,6" fill="none" stroke="#10B981" stroke-width="2.2" stroke-linecap="round"/>
  <line x1="10" y1="32" x2="17" y2="32" stroke="#10B981" stroke-width="1" opacity="0.12"/>
  <line x1="10" y1="48" x2="17" y2="48" stroke="#10B981" stroke-width="1" opacity="0.12"/>
  <circle cx="25" cy="61" r="12" fill="#10B981"/>
  <polygon points="25,53.5 30.5,56.5 29,62.5 21,62.5 19.5,56.5" fill="#0e0e10" opacity="0.25"/>
  <circle cx="49" cy="61" r="11" fill="#10B981" opacity="0.5"/>
  <path d="M49,50 Q54,61 49,72" fill="none" stroke="#0e0e10" stroke-width="1.2" opacity="0.22"/>
  <line x1="38" y1="61" x2="60" y2="61" stroke="#0e0e10" stroke-width="0.8" opacity="0.18"/>
  <circle cx="36" cy="43" r="8" fill="#10B981" opacity="0.25"/>
  <path d="M32.5,37 Q36,42.5 32.5,48" fill="none" stroke="#0e0e10" stroke-width="0.8" opacity="0.28"/>
  <path d="M39.5,37 Q36,42.5 39.5,48" fill="none" stroke="#0e0e10" stroke-width="0.8" opacity="0.28"/>
  <text x="82" y="48" font-family="'Outfit', sans-serif" font-size="22" font-weight="800" letter-spacing="-1" fill="#10B981">MATCHLAB</text>
</svg>